<?xml version="1.0" encoding="UTF-8" standalone="no"?>
<svg
   version="1.0"
   width="260.000000pt"
   height="262.000000pt"
   viewBox="0 0 260.000000 262.000000"
   preserveAspectRatio="xMidYMid meet"
   id="svg8"
   sodipodi:docname="Purdue-3dPC-logo.svg"
   inkscape:version="1.3.2 (091e20e, 2023-11-25, custom)"
   xmlns:inkscape="http://www.inkscape.org/namespaces/inkscape"
   xmlns:sodipodi="http://sodipodi.sourceforge.net/DTD/sodipodi-0.dtd"
   xmlns="http://www.w3.org/2000/svg"
   xmlns:svg="http://www.w3.org/2000/svg">
  <defs
     id="defs8" />
  <sodipodi:namedview
     id="namedview8"
     pagecolor="#ffffff"
     bordercolor="#000000"
     borderopacity="0.25"
     inkscape:showpageshadow="2"
     inkscape:pageopacity="0.0"
     inkscape:pagecheckerboard="0"
     inkscape:deskcolor="#d1d1d1"
     inkscape:document-units="pt"
     inkscape:zoom="2.476145"
     inkscape:cx="173.45511"
     inkscape:cy="142.35838"
     inkscape:window-width="1920"
     inkscape:window-height="1121"
     inkscape:window-x="-9"
     inkscape:window-y="-9"
     inkscape:window-maximized="1"
     inkscape:current-layer="svg8" />
  <g
     transform="translate(0.000000,262.000000) scale(0.100000,-0.100000)"
     fill="#000000"
     stroke="none"
     id="g8">
    <path
       id="path1"
       d="M 2202.4951 2597.5 C 1973.9953 2597.5 1605.9926 2596.0029 1047.9932 2593.0029 L 610.00488 2590 L 610.00488 2354.9951 L 610.00488 2120.0049 L 1332.9932 2120.0049 L 2055 2120.0049 L 2287.998 2353.0029 C 2414.9979 2480.0028 2520 2588.0029 2520 2593.0029 C 2520 2596.0029 2430.9949 2597.5 2202.4951 2597.5 z M 492.99316 2579.9951 C 487.99317 2579.9951 382.00671 2478.0067 257.00684 2352.0068 C 132.00696 2227.007 30 2121.0019 30 2117.002 C 30 2113.002 134.99817 2111.0068 262.99805 2112.0068 L 495 2114.9951 L 498.00293 2347.9932 C 499.00293 2474.993 496.99316 2579.9951 492.99316 2579.9951 z M 2597.0068 2500 C 2596.0068 2500 2490.0018 2395.0018 2362.002 2267.002 L 2130 2034.0039 L 2130 1317.0068 L 2130 599.99512 L 2365.0049 599.99512 L 2599.9951 599.99512 L 2599.9951 1550.0049 C 2599.9951 2073.0044 2599.0068 2500 2597.0068 2500 z M 1322.0068 2009.9951 C 938.00722 2009.9951 620.00683 2006.9932 617.00684 2002.9932 C 613.00684 1999.9932 610.00488 1681.9928 610.00488 1297.9932 L 610.00488 599.99512 L 940.00488 599.99512 L 1270.0049 599.99512 L 1270.0049 759.00391 L 1270.0049 917.99805 L 1144.9951 1036.0059 L 1020 1153.0029 L 1020 1405.9961 L 1020 1660 L 1315.0049 1660 L 1609.9951 1660 L 1609.9951 1405.9961 L 1609.9951 1152.0068 L 1489.9951 1037.002 L 1369.9951 922.99316 L 1369.9951 760.99609 L 1369.9951 599.99512 L 1695 599.99512 L 2020.0049 599.99512 L 2020.0049 1304.9951 L 2020.0049 2009.9951 L 1322.0068 2009.9951 z M 173.9502 2008.2227 C 90.372154 2007.9414 29.997067 2006.2539 26.99707 2004.0039 C 16.99708 1994.0039 17.993174 110.00488 27.993164 110.00488 C 31.99316 110.00488 139.99329 215.00306 267.99316 343.00293 L 499.99512 575.00488 L 498.00293 1289.9951 L 495 2005 L 263.99414 2008.0029 C 232.24417 2008.2529 201.80954 2008.3164 173.9502 2008.2227 z M 1120.0049 1559.9951 L 1120.0049 1377.0068 L 1120.0049 1194.0039 L 1177.998 1139.9951 C 1208.998 1108.9951 1254.003 1067 1278.0029 1045 L 1320 1006.0059 L 1414.9951 1100.0049 L 1510.0049 1195 L 1510.0049 1377.0068 L 1510.0049 1559.9951 L 1315.0049 1559.9951 L 1120.0049 1559.9951 z M 595.00488 490 L 355.00488 250 L 115.00488 10 L 1068.0029 10 L 2020.0049 10 L 2020.0049 250 L 2020.0049 490 L 1307.0068 490 L 595.00488 490 z M 2140.0049 479.99512 L 2140.0049 242.99805 L 2140.0049 5.0048828 L 2370 235 C 2496.9999 360.99987 2599.9951 467.99707 2599.9951 471.99707 C 2599.9951 476.99707 2496.9999 479.99512 2370 479.99512 L 2140.0049 479.99512 z " />
  </g>
</svg>
