<?xml version="1.0" encoding="UTF-8" standalone="no"?>
<!-- Created with Inkscape (http://www.inkscape.org/) -->

<svg
   width="3in"
   height="1.5in"
   viewBox="0 0 76.200001 38.1"
   version="1.1"
   id="svg1"
   xml:space="preserve"
   inkscape:version="1.3.2 (091e20e, 2023-11-25, custom)"
   sodipodi:docname="template.svg"
   xmlns:inkscape="http://www.inkscape.org/namespaces/inkscape"
   xmlns:sodipodi="http://sodipodi.sourceforge.net/DTD/sodipodi-0.dtd"
   xmlns="http://www.w3.org/2000/svg"
   xmlns:svg="http://www.w3.org/2000/svg"><sodipodi:namedview
     id="namedview1"
     pagecolor="#ffffff"
     bordercolor="#000000"
     borderopacity="0.25"
     inkscape:showpageshadow="2"
     inkscape:pageopacity="0.0"
     inkscape:pagecheckerboard="true"
     inkscape:deskcolor="#d1d1d1"
     inkscape:document-units="mm"
     inkscape:export-bgcolor="#ffffff00"
     inkscape:zoom="2.1795515"
     inkscape:cx="83.274013"
     inkscape:cy="80.979963"
     inkscape:window-width="1920"
     inkscape:window-height="1121"
     inkscape:window-x="-9"
     inkscape:window-y="-9"
     inkscape:window-maximized="1"
     inkscape:current-layer="layer1" /><defs
     id="defs1"><rect
       x="111.27869"
       y="17.519093"
       width="186.22147"
       height="24.98093"
       id="rect5" /><rect
       x="25.954212"
       y="100.897"
       width="259.2177"
       height="30.171772"
       id="rect4" /><rect
       x="106.08784"
       y="41.851167"
       width="101.54586"
       height="26.927496"
       id="rect3" /><rect
       x="104.79013"
       y="41.851167"
       width="1.9465659"
       height="20.114515"
       id="rect2" /><rect
       x="111.27869"
       y="17.519093"
       width="186.22147"
       height="24.98093"
       id="rect5-7" /></defs><g
     inkscape:label="Layer 1"
     inkscape:groupmode="layer"
     id="layer1"><rect
       style="fill:none;stroke-width:0.0254;stroke-dasharray:none;paint-order:stroke fill markers;stroke:#000000;stroke-opacity:1;stroke-linecap:butt;stroke-linejoin:miter"
       id="rect1"
       width="76.138443"
       height="37.854626"
       x="0"
       y="0.17167631"
       ry="4.4635839" /><g
       transform="matrix(0.03527778,0,0,-0.03527778,41.384271,65.776743)"
       fill="#000000"
       stroke="none"
       id="g8"><path
         id="path1"
         d="m 812.08925,1788.7986 c -48.1992,0 -125.8247,-0.3158 -243.5277,-0.9487 l -92.3912,-0.6334 v -49.5682 -49.5713 h 152.5084 152.2982 l 49.1481,49.148 c 26.789,26.789 48.9379,49.5703 48.9379,50.6249 0,0.6329 -18.7745,0.9487 -66.9737,0.9487 z m -360.598,-3.6894 c -1.0547,0 -23.4143,-21.5163 -49.7815,-48.0944 -26.3671,-26.3671 -47.8811,-48.7275 -47.8811,-49.5713 0,-0.8437 22.148,-1.2646 49.148,-1.0537 l 48.9379,0.6335 0.6334,49.148 c 0.2109,26.789 -0.213,48.9379 -1.0567,48.9379 z m 443.8123,-16.877 c -0.211,0 -22.5684,-22.1481 -49.5683,-49.1481 l -48.9379,-49.148 v -151.2416 -151.2416 h 49.5682 49.5713 v 200.3897 c 0,110.3202 -0.2115,200.3896 -0.6333,200.3896 z m -268.9454,-103.3574 c -80.9998,0 -148.078,-0.6332 -148.7109,-1.477 -0.8437,-0.6327 -1.4769,-67.711 -1.4769,-148.7109 v -147.234 h 69.6093 69.6094 v 33.5379 33.5378 l -26.3662,24.8923 -26.3661,24.6791 v 53.3657 53.579 h 62.2244 62.2276 v -53.579 -53.5759 l -25.3125,-24.2588 -25.3125,-24.0457 v -34.1743 -33.9581 h 68.5557 68.5527 v 148.711 148.7109 z m -242.165,-0.3769 c -17.6298,-0.059 -30.3651,-0.4153 -30.9979,-0.8899 -2.1094,-2.1094 -1.8993,-399.5154 0.2101,-399.5154 0.8437,0 23.625,22.148 50.625,49.148 l 48.9379,48.9379 -0.4203,150.8213 -0.6334,150.8183 -48.7278,0.6334 c -6.6972,0.053 -13.117,0.066 -18.9936,0.046 z m 199.5553,-94.545 v -38.6022 -38.6021 l 12.236,-11.3894 c 6.5391,-6.539 16.0323,-15.4004 21.0948,-20.0411 l 8.8588,-8.2253 20.0379,19.8279 20.0381,20.0381 v 38.3919 38.6022 h -41.1329 z m -110.7422,-225.7051 -50.625,-50.625 -50.625,-50.625 h 201.0261 200.8098 v 50.625 50.625 h -150.398 z m 325.8984,-2.1073 v -49.9947 -50.2017 l 48.5177,48.5147 c 26.789,26.578 48.5145,49.1478 48.5145,49.9915 0,1.0547 -21.7255,1.6902 -48.5145,1.6902 z"
         style="stroke-width:0.210938" /></g><text
       xml:space="preserve"
       transform="scale(0.26458333)"
       id="text2"
       style="font-style:normal;font-variant:normal;font-weight:normal;font-stretch:normal;font-size:18.6667px;font-family:Sans;-inkscape-font-specification:'Sans, Normal';font-variant-ligatures:normal;font-variant-caps:normal;font-variant-numeric:normal;font-variant-east-asian:normal;white-space:pre;shape-inside:url(#rect2);fill:#24221c;stroke:#000000;stroke-width:0.096;stroke-linecap:butt;stroke-linejoin:miter;stroke-dasharray:none;stroke-opacity:1;paint-order:stroke fill markers" /><text
       xml:space="preserve"
       transform="matrix(0.26458333,0,0,0.26458333,-23.803943,-0.82282618)"
       id="text4"
       style="font-style:normal;font-variant:normal;font-weight:bold;font-stretch:normal;font-size:24px;font-family:Sans;-inkscape-font-specification:'Sans, Bold';font-variant-ligatures:normal;font-variant-caps:normal;font-variant-numeric:normal;font-variant-east-asian:normal;text-align:center;white-space:pre;shape-inside:url(#rect4);fill:#24221c;stroke:#000000;stroke-width:0.096;stroke-linecap:butt;stroke-linejoin:miter;stroke-dasharray:none;stroke-opacity:1;paint-order:stroke fill markers"
       x="39.520771"
       y="0"><tspan
         x="100.9541"
         y="122.79241"
         id="tspan1">Position</tspan></text><text
       xml:space="preserve"
       transform="matrix(0.26458333,0,0,0.26458333,-35.794509,-1.115896)"
       id="text1"
       style="font-size:21.3333px;font-family:Sans;-inkscape-font-specification:'Sans, Normal';text-align:center;white-space:pre;shape-inside:url(#rect5);fill:#24221c;stroke:#000000;stroke-width:0.096;paint-order:stroke fill markers"><tspan
         x="146.15537"
         y="36.982547"
         id="tspan2">First Name</tspan></text><text
       xml:space="preserve"
       transform="matrix(0.26458333,0,0,0.26458333,-35.986341,10.723874)"
       id="text1-3"
       style="font-size:21.3333px;font-family:Sans;-inkscape-font-specification:'Sans, Normal';text-align:center;white-space:pre;shape-inside:url(#rect5-7);fill:#24221c;stroke:#000000;stroke-width:0.096;paint-order:stroke fill markers"><tspan
         x="147.42099"
         y="36.982547"
         id="tspan3">Last Name</tspan></text></g></svg>
